<?xml version="1.0" standalone="no"?>
<!DOCTYPE svg PUBLIC "-//W3C//DTD SVG 20010904//EN"
 "http://www.w3.org/TR/2001/REC-SVG-20010904/DTD/svg10.dtd">
<svg version="1.0" xmlns="http://www.w3.org/2000/svg"
 width="512.000000pt" height="512.000000pt" viewBox="0 0 512.000000 512.000000"
 preserveAspectRatio="xMidYMid meet">
<metadata>
Created by potrace 1.11, written by Peter Selinger 2001-2013
</metadata>
<g transform="translate(0.000000,512.000000) scale(0.100000,-0.100000)"
fill="#000000" stroke="none">
<path d="M2415 4763 c-374 -26 -755 -153 -1063 -356 -534 -353 -880 -896 -978
-1537 -24 -157 -24 -462 0 -624 78 -533 352 -1029 756 -1369 320 -269 706
-443 1116 -503 163 -24 468 -24 624 -1 489 75 909 285 1250 627 342 341 552
761 627 1250 23 156 23 461 -1 624 -60 410 -234 796 -503 1116 -443 526 -1138
820 -1828 773z m387 -298 c559 -74 1044 -375 1353 -840 386 -580 431 -1304
120 -1925 -470 -936 -1603 -1324 -2543 -870 -594 287 -993 839 -1077 1493
-100 775 286 1532 977 1920 210 117 482 203 728 230 92 10 340 6 442 -8z"/>
<path d="M1895 2808 c8 -629 17 -709 97 -878 91 -190 246 -282 500 -297 422
-24 663 199 707 653 6 55 12 303 15 552 l5 452 -112 0 -113 0 1 -527 c0 -473
-2 -537 -18 -612 -58 -269 -197 -376 -466 -358 -214 14 -319 116 -374 363 -21
96 -22 116 -20 617 l2 517 -115 0 -116 0 7 -482z"/>
</g>
</svg>
